# Blender 3.4.1
# www.blender.org
mtllib pillars.mtl
o Cube
v 0.951065 6.043253 -0.818686
v 0.951065 -0.359162 -1.186827
v 0.864532 5.516127 0.689519
v 0.951065 -1.166949 1.181314
v -1.048935 6.043253 -0.818686
v -1.048935 -1.166949 -0.818686
v -1.048935 6.043253 1.181314
v -1.048935 -1.166949 1.181314
vn 0.1505 0.9771 0.1505
vn 0.1294 0.0359 0.9909
vn -1.0000 -0.0000 -0.0000
vn 0.1789 -0.9675 -0.1789
vn 0.9997 0.0068 0.0247
vn -0.0970 0.0269 -0.9949
vt 0.625000 0.500000
vt 0.375000 0.500000
vt 0.625000 0.750000
vt 0.375000 0.750000
vt 0.875000 0.500000
vt 0.625000 0.250000
vt 0.125000 0.500000
vt 0.375000 0.250000
vt 0.875000 0.750000
vt 0.625000 1.000000
vt 0.625000 0.000000
vt 0.375000 1.000000
vt 0.375000 0.000000
vt 0.125000 0.750000
s 0
usemtl Material
f 1/1/1 5/5/1 7/9/1 3/3/1
f 4/4/2 3/3/2 7/10/2 8/12/2
f 8/13/3 7/11/3 5/6/3 6/8/3
f 6/7/4 2/2/4 4/4/4 8/14/4
f 2/2/5 1/1/5 3/3/5 4/4/5
f 6/8/6 5/6/6 1/1/6 2/2/6
o Cube.001
v -0.619837 -0.504555 6.636977
v -0.619837 6.970341 1.888100
v -0.619837 -1.740889 5.064883
v -0.619837 5.734008 0.316006
v 1.380163 -0.504555 6.636977
v 1.380163 6.970341 1.888100
v 1.380163 -1.740889 5.064883
v 1.380163 5.734008 0.316006
vn -1.0000 -0.0000 -0.0000
vn -0.0000 -0.5362 -0.8441
vn 1.0000 -0.0000 -0.0000
vn -0.0000 0.5362 0.8441
vn -0.0000 -0.7860 0.6182
vn -0.0000 0.7860 -0.6182
vt 0.375000 0.000000
vt 0.375000 1.000000
vt 0.125000 0.750000
vt 0.625000 0.000000
vt 0.625000 1.000000
vt 0.875000 0.750000
vt 0.375000 0.250000
vt 0.125000 0.500000
vt 0.625000 0.250000
vt 0.875000 0.500000
vt 0.375000 0.750000
vt 0.625000 0.750000
vt 0.375000 0.500000
vt 0.625000 0.500000
s 0
f 9/15/7 10/18/7 12/23/7 11/21/7
f 11/21/8 12/23/8 16/28/8 15/27/8
f 15/27/9 16/28/9 14/26/9 13/25/9
f 13/25/10 14/26/10 10/19/10 9/16/10
f 11/22/11 15/27/11 13/25/11 9/17/11
f 16/28/12 12/24/12 10/20/12 14/26/12
