# Blender 3.4.1
# www.blender.org
mtllib Stone.mtl
o Cube
v 0.837327 1.420841 -1.261400
v 0.837327 -0.579159 -1.261400
v 0.359935 1.283467 0.912624
v 0.837327 -0.579159 0.738600
v -0.835423 1.263825 -1.048091
v -1.162673 -0.579159 -1.261400
v -1.003808 1.302160 0.738600
v -1.004726 -0.346620 0.780564
vn -0.0453 0.9988 0.0176
vn -0.0445 -0.0436 0.9981
vn -0.9955 0.0940 -0.0094
vn -0.0597 -0.9964 0.0597
vn 0.9863 0.1166 0.1166
vn -0.0605 0.0605 -0.9963
vt 0.625000 0.500000
vt 0.375000 0.500000
vt 0.625000 0.750000
vt 0.375000 0.750000
vt 0.875000 0.500000
vt 0.625000 0.250000
vt 0.125000 0.500000
vt 0.375000 0.250000
vt 0.875000 0.750000
vt 0.625000 1.000000
vt 0.625000 0.000000
vt 0.375000 1.000000
vt 0.375000 0.000000
vt 0.125000 0.750000
s 0
usemtl Stone
f 1/1/1 5/5/1 7/9/1 3/3/1
f 4/4/2 3/3/2 7/10/2 8/12/2
f 8/13/3 7/11/3 5/6/3 6/8/3
f 6/7/4 2/2/4 4/4/4 8/14/4
f 2/2/5 1/1/5 3/3/5 4/4/5
f 6/8/6 5/6/6 1/1/6 2/2/6
